<?xml version="1.0" encoding="UTF-8" standalone="no"?>
<!-- Created with Inkscape (http://www.inkscape.org/) -->

<svg
   xmlns:dc="http://purl.org/dc/elements/1.1/"
   xmlns:cc="http://creativecommons.org/ns#"
   xmlns:rdf="http://www.w3.org/1999/02/22-rdf-syntax-ns#"
   xmlns:svg="http://www.w3.org/2000/svg"
   xmlns="http://www.w3.org/2000/svg"
   xmlns:sodipodi="http://sodipodi.sourceforge.net/DTD/sodipodi-0.dtd"
   xmlns:inkscape="http://www.inkscape.org/namespaces/inkscape"
   width="203.48927mm"
   height="35.496037mm"
   viewBox="0 0 721.02498 125.77336"
   id="svg8285"
   version="1.1"
   inkscape:version="0.91 r13725"
   sodipodi:docname="tt-logo.svg">
  <defs
     id="defs8287" />
  <sodipodi:namedview
     id="base"
     pagecolor="#ffffff"
     bordercolor="#666666"
     borderopacity="1.0"
     inkscape:pageopacity="0.0"
     inkscape:pageshadow="2"
     inkscape:zoom="0.98994949"
     inkscape:cx="354.79038"
     inkscape:cy="-1.3610273"
     inkscape:document-units="px"
     inkscape:current-layer="layer1"
     showgrid="false"
     inkscape:window-width="1920"
     inkscape:window-height="957"
     inkscape:window-x="78"
     inkscape:window-y="282"
     inkscape:window-maximized="0"
     fit-margin-top="0"
     fit-margin-left="0"
     fit-margin-right="0"
     fit-margin-bottom="0" />
  <metadata
     id="metadata8290">
    <rdf:RDF>
      <cc:Work
         rdf:about="">
        <dc:format>image/svg+xml</dc:format>
        <dc:type
           rdf:resource="http://purl.org/dc/dcmitype/StillImage" />
        <dc:title></dc:title>
      </cc:Work>
    </rdf:RDF>
  </metadata>
  <g
     inkscape:label="Layer 1"
     inkscape:groupmode="layer"
     id="layer1"
     transform="translate(633.97474,-270.02052)">
    <g
       transform="matrix(1.8914983,0,0,1.8914983,2208.0585,-985.43226)"
       style="font-style:normal;font-weight:normal;font-size:40px;line-height:125%;font-family:sans-serif;letter-spacing:0px;word-spacing:0px;fill:none;fill-opacity:1;stroke:#000000;stroke-width:0.63441771;stroke-linecap:butt;stroke-linejoin:miter;stroke-miterlimit:4;stroke-dasharray:none;stroke-opacity:1"
       id="flowRoot8879" />
    <g
       id="g9213">
      <path
         id="path8921"
         style="font-style:normal;font-weight:bold;font-size:40px;line-height:125%;font-family:Helvetica;letter-spacing:0.01057363px;word-spacing:0px;fill:#ffcf05;fill-opacity:1;stroke:#ffcf05;stroke-width:0.63441771;stroke-linecap:butt;stroke-linejoin:miter;stroke-miterlimit:4;stroke-dasharray:none;stroke-opacity:1;font-variant:normal;font-stretch:normal;-inkscape-font-specification:'Helvetica Bold'"
         d="m -1478.8926,664.93066 0,5.09766 -8.6133,0 0,23.69141 -6.0546,0 0,-23.69141 -8.6524,0 0,-5.09766 23.3203,0 z"
         inkscape:connector-curvature="0"
         transform="matrix(1.8914983,0,0,1.8914983,2208.0585,-985.43228)" />
      <path
         inkscape:connector-curvature="0"
         id="path8923"
         style="font-style:normal;font-weight:bold;font-size:40px;line-height:125%;font-family:Helvetica;letter-spacing:0.01057363px;word-spacing:0px;fill:#ffffff;fill-opacity:1;stroke:#ffffff;stroke-width:0.63441771;stroke-linecap:butt;stroke-linejoin:miter;stroke-miterlimit:4;stroke-dasharray:none;stroke-opacity:1;font-variant:normal;font-stretch:normal;-inkscape-font-specification:'Helvetica Bold'"
         d="m -1469.3312,669.93066 0,7.73438 6.8164,0 q 2.0312,0 3.0469,-0.46875 1.7968,-0.82031 1.7968,-3.24219 0,-2.61719 -1.7382,-3.51562 -0.9766,-0.50782 -2.9297,-0.50782 l -6.9922,0 z m 8.2422,-5 q 3.0273,0.0586 4.6484,0.74219 1.6406,0.6836 2.7734,2.01172 0.9375,1.09375 1.4844,2.42188 0.5469,1.32812 0.5469,3.02734 0,2.05078 -1.0352,4.04297 -1.0351,1.97265 -3.4179,2.79297 1.9922,0.80078 2.8125,2.28515 0.8398,1.46485 0.8398,4.49219 l 0,1.93359 q 0,1.97266 0.1563,2.67579 0.2343,1.11328 1.0937,1.64062 l 0,0.72266 -6.6211,0 q -0.2734,-0.95703 -0.3906,-1.54297 -0.2344,-1.21094 -0.2539,-2.48047 l -0.039,-2.67578 q -0.039,-2.75391 -1.0156,-3.67188 -0.957,-0.91797 -3.6133,-0.91797 l -6.2109,0 0,11.28907 -5.8789,0 0,-28.78907 14.1211,0 z"
         transform="matrix(1.8914983,0,0,1.8914983,2208.0585,-985.43228)" />
      <path
         inkscape:connector-curvature="0"
         id="path8925"
         style="font-style:normal;font-weight:bold;font-size:40px;line-height:125%;font-family:Helvetica;letter-spacing:0.01057363px;word-spacing:0px;fill:#ffffff;fill-opacity:1;stroke:#ffffff;stroke-width:0.63441771;stroke-linecap:butt;stroke-linejoin:miter;stroke-miterlimit:4;stroke-dasharray:none;stroke-opacity:1;font-variant:normal;font-stretch:normal;-inkscape-font-specification:'Helvetica Bold'"
         d="m -1439.6163,682.84082 7.3047,0 -3.5938,-11.32812 -3.7109,11.32812 z m 0.3711,-17.91016 6.7968,0 10.1954,28.78907 -6.5235,0 -1.8555,-5.91797 -10.6054,0 -1.9922,5.91797 -6.2891,0 10.2735,-28.78907 z m 3.3593,0 0,0 z"
         transform="matrix(1.8914983,0,0,1.8914983,2208.0585,-985.43228)" />
      <path
         inkscape:connector-curvature="0"
         id="path8927"
         style="font-style:normal;font-weight:bold;font-size:40px;line-height:125%;font-family:Helvetica;letter-spacing:0.01057363px;word-spacing:0px;fill:#ffffff;fill-opacity:1;stroke:#ffffff;stroke-width:0.63441771;stroke-linecap:butt;stroke-linejoin:miter;stroke-miterlimit:4;stroke-dasharray:none;stroke-opacity:1;font-variant:normal;font-stretch:normal;-inkscape-font-specification:'Helvetica Bold'"
         d="m -1419.7257,664.93066 6.3086,0 11.4649,20.09766 0,-20.09766 5.6055,0 0,28.78907 -6.0157,0 -11.7578,-20.44922 0,20.44922 -5.6055,0 0,-28.78907 z m 11.9141,-0.0586 0,0 z"
         transform="matrix(1.8914983,0,0,1.8914983,2208.0585,-985.43228)" />
      <path
         inkscape:connector-curvature="0"
         id="path8929"
         style="font-style:normal;font-weight:bold;font-size:40px;line-height:125%;font-family:Helvetica;letter-spacing:0.01057363px;word-spacing:0px;fill:#ffffff;fill-opacity:1;stroke:#ffffff;stroke-width:0.63441771;stroke-linecap:butt;stroke-linejoin:miter;stroke-miterlimit:4;stroke-dasharray:none;stroke-opacity:1;font-variant:normal;font-stretch:normal;-inkscape-font-specification:'Helvetica Bold'"
         d="m -1386.3557,684.83301 q 0.2734,1.97265 1.0742,2.94922 1.4649,1.77734 5.0195,1.77734 2.129,0 3.4571,-0.46875 2.5195,-0.89844 2.5195,-3.33984 0,-1.42578 -1.25,-2.20703 -1.25,-0.76172 -3.9258,-1.34766 l -3.0468,-0.68359 q -4.4922,-1.01563 -6.211,-2.20704 -2.9101,-1.99218 -2.9101,-6.23046 0,-3.86719 2.8125,-6.42579 2.8125,-2.55859 8.2617,-2.55859 4.5508,0 7.7539,2.42188 3.2226,2.40234 3.3789,6.99218 l -5.7813,0 q -0.1562,-2.59765 -2.2656,-3.6914 -1.4062,-0.72266 -3.4961,-0.72266 -2.3242,0 -3.7109,0.9375 -1.3867,0.9375 -1.3867,2.61719 0,1.54297 1.3672,2.30469 0.8789,0.50781 3.75,1.1914 l 4.9609,1.19141 q 3.2617,0.78125 4.9219,2.08984 2.5781,2.03125 2.5781,5.87891 0,3.94531 -3.0274,6.5625 -3.0078,2.59765 -8.5156,2.59765 -5.625,0 -8.8476,-2.55859 -3.2227,-2.57812 -3.2227,-7.07031 l 5.7422,0 z m 5.8398,-20.78125 0,0 z"
         transform="matrix(1.8914983,0,0,1.8914983,2208.0585,-985.43228)" />
      <path
         inkscape:connector-curvature="0"
         id="path8931"
         style="font-style:normal;font-weight:bold;font-size:40px;line-height:125%;font-family:Helvetica;letter-spacing:0.01057363px;word-spacing:0px;fill:#ffffff;fill-opacity:1;stroke:#ffffff;stroke-width:0.63441771;stroke-linecap:butt;stroke-linejoin:miter;stroke-miterlimit:4;stroke-dasharray:none;stroke-opacity:1;font-variant:normal;font-stretch:normal;-inkscape-font-specification:'Helvetica Bold'"
         d="m -1365.1174,664.96973 20.4102,0 0,5.05859 -14.4336,0 0,6.62109 12.6367,0 0,5 -12.6367,0 0,12.07032 -5.9766,0 0,-28.75 z"
         transform="matrix(1.8914983,0,0,1.8914983,2208.0585,-985.43228)" />
      <path
         inkscape:connector-curvature="0"
         id="path8933"
         style="font-style:normal;font-weight:bold;font-size:40px;line-height:125%;font-family:Helvetica;letter-spacing:0.01057363px;word-spacing:0px;fill:#ffffff;fill-opacity:1;stroke:#ffffff;stroke-width:0.63441771;stroke-linecap:butt;stroke-linejoin:miter;stroke-miterlimit:4;stroke-dasharray:none;stroke-opacity:1;font-variant:normal;font-stretch:normal;-inkscape-font-specification:'Helvetica Bold'"
         d="m -1328.9767,689.42285 q 3.5742,0 5.6641,-2.63672 2.1093,-2.63672 2.1093,-7.5 0,-4.84375 -2.1093,-7.48047 -2.0899,-2.65625 -5.6641,-2.65625 -3.5742,0 -5.7031,2.63672 -2.1289,2.63672 -2.1289,7.5 0,4.86328 2.1289,7.5 2.1289,2.63672 5.7031,2.63672 z m 13.7891,-10.13672 q 0,7.75391 -4.3555,11.875 -3.2617,3.35938 -9.4336,3.35938 -6.1719,0 -9.4336,-3.35938 -4.375,-4.12109 -4.375,-11.875 0,-7.91015 4.375,-11.875 3.2617,-3.35937 9.4336,-3.35937 6.1719,0 9.4336,3.35937 4.3555,3.96485 4.3555,11.875 z m -13.7891,-15.23437 0,0 z"
         transform="matrix(1.8914983,0,0,1.8914983,2208.0585,-985.43228)" />
      <path
         inkscape:connector-curvature="0"
         id="path8935"
         style="font-style:normal;font-weight:bold;font-size:40px;line-height:125%;font-family:Helvetica;letter-spacing:0.01057363px;word-spacing:0px;fill:#ffffff;fill-opacity:1;stroke:#ffffff;stroke-width:0.63441771;stroke-linecap:butt;stroke-linejoin:miter;stroke-miterlimit:4;stroke-dasharray:none;stroke-opacity:1;font-variant:normal;font-stretch:normal;-inkscape-font-specification:'Helvetica Bold'"
         d="m -1305.6485,669.93066 0,7.73438 6.8164,0 q 2.0312,0 3.0469,-0.46875 1.7968,-0.82031 1.7968,-3.24219 0,-2.61719 -1.7383,-3.51562 -0.9765,-0.50782 -2.9296,-0.50782 l -6.9922,0 z m 8.2422,-5 q 3.0273,0.0586 4.6484,0.74219 1.6406,0.6836 2.7734,2.01172 0.9375,1.09375 1.4844,2.42188 0.5469,1.32812 0.5469,3.02734 0,2.05078 -1.0352,4.04297 -1.0351,1.97265 -3.4179,2.79297 1.9921,0.80078 2.8125,2.28515 0.8398,1.46485 0.8398,4.49219 l 0,1.93359 q 0,1.97266 0.1563,2.67579 0.2343,1.11328 1.0937,1.64062 l 0,0.72266 -6.6211,0 q -0.2734,-0.95703 -0.3906,-1.54297 -0.2344,-1.21094 -0.2539,-2.48047 l -0.039,-2.67578 q -0.039,-2.75391 -1.0156,-3.67188 -0.957,-0.91797 -3.6133,-0.91797 l -6.2109,0 0,11.28907 -5.8789,0 0,-28.78907 14.1211,0 z"
         transform="matrix(1.8914983,0,0,1.8914983,2208.0585,-985.43228)" />
      <path
         inkscape:connector-curvature="0"
         id="path8937"
         style="font-style:normal;font-weight:bold;font-size:40px;line-height:125%;font-family:Helvetica;letter-spacing:0.01057363px;word-spacing:0px;fill:#ffffff;fill-opacity:1;stroke:#ffffff;stroke-width:0.63441771;stroke-linecap:butt;stroke-linejoin:miter;stroke-miterlimit:4;stroke-dasharray:none;stroke-opacity:1;font-variant:normal;font-stretch:normal;-inkscape-font-specification:'Helvetica Bold'"
         d="m -1263.7839,664.9576 9.5747,0 0,28.73519 -6.203,0 0,-19.43621 q 0,-0.83827 0.022,-2.33936 0.021,-1.52059 0.021,-2.33936 l -6.0301,24.11493 -6.4623,0 -5.987,-24.11493 q 0,0.81877 0.022,2.33936 0.021,1.50109 0.021,2.33936 l 0,19.43621 -6.203,0 0,-28.73519 9.6828,0 5.7924,22.59435 5.7491,-22.59435 z"
         transform="matrix(1.8914983,0,0,1.8914983,2208.0585,-985.43228)" />
      <path
         inkscape:connector-curvature="0"
         id="path8939"
         style="font-style:normal;font-weight:bold;font-size:40px;line-height:125%;font-family:Helvetica;letter-spacing:0.01057363px;word-spacing:0px;fill:#ffffff;fill-opacity:1;stroke:#ffffff;stroke-width:0.63441771;stroke-linecap:butt;stroke-linejoin:miter;stroke-miterlimit:4;stroke-dasharray:none;stroke-opacity:1;font-variant:normal;font-stretch:normal;-inkscape-font-specification:'Helvetica Bold'"
         d="m -1242.8122,693.71973 -5.9765,0 0,-28.78907 5.9765,0 0,28.78907 z m -2.9882,-29.35547 0,0 z"
         transform="matrix(1.8914983,0,0,1.8914983,2208.0585,-985.43228)" />
      <path
         inkscape:connector-curvature="0"
         id="path8941"
         style="font-style:normal;font-weight:bold;font-size:40px;line-height:125%;font-family:Helvetica;letter-spacing:0.01057363px;word-spacing:0px;fill:#ffffff;fill-opacity:1;stroke:#ffffff;stroke-width:0.63441771;stroke-linecap:butt;stroke-linejoin:miter;stroke-miterlimit:4;stroke-dasharray:none;stroke-opacity:1;font-variant:normal;font-stretch:normal;-inkscape-font-specification:'Helvetica Bold'"
         d="m -1237.2352,664.93066 6.3086,0 11.4649,20.09766 0,-20.09766 5.6054,0 0,28.78907 -6.0156,0 -11.7578,-20.44922 0,20.44922 -5.6055,0 0,-28.78907 z m 11.9141,-0.0586 0,0 z"
         transform="matrix(1.8914983,0,0,1.8914983,2208.0585,-985.43228)" />
      <path
         inkscape:connector-curvature="0"
         id="path8943"
         style="font-style:normal;font-weight:bold;font-size:40px;line-height:125%;font-family:Helvetica;letter-spacing:0.01057363px;word-spacing:0px;fill:#ffffff;fill-opacity:1;stroke:#ffffff;stroke-width:0.63441771;stroke-linecap:butt;stroke-linejoin:miter;stroke-miterlimit:4;stroke-dasharray:none;stroke-opacity:1;font-variant:normal;font-stretch:normal;-inkscape-font-specification:'Helvetica Bold'"
         d="m -1189.9227,673.91504 q -0.6835,-2.94922 -3.3398,-4.12109 -1.4844,-0.64454 -3.3008,-0.64454 -3.4765,0 -5.7226,2.63672 -2.2266,2.61719 -2.2266,7.89063 0,5.3125 2.4219,7.51953 2.4219,2.20703 5.5078,2.20703 3.0273,0 4.9609,-1.73828 1.9336,-1.75781 2.3828,-4.58984 l -6.6601,0 0,-4.80469 11.9922,0 0,15.44922 -3.9844,0 -0.6055,-3.59375 q -1.7383,2.05078 -3.125,2.89062 -2.3828,1.46485 -5.8593,1.46485 -5.7227,0 -9.375,-3.96485 -3.8086,-3.98437 -3.8086,-10.89844 0,-6.99218 3.8476,-11.21093 3.8477,-4.21875 10.1758,-4.21875 5.4883,0 8.8086,2.79297 3.3398,2.77343 3.8281,6.93359 l -5.918,0 z m -6.7382,-9.72656 0,0 z"
         transform="matrix(1.8914983,0,0,1.8914983,2208.0585,-985.43228)" />
      <path
         inkscape:connector-curvature="0"
         id="path8982"
         d="m -1176.7219,665.37709 c 2.6485,2.87078 10.7656,12.14561 13.2461,14.39808 -2.4805,2.25248 -10.5976,11.5273 -13.2461,14.39809 l 13.2461,0 14.2836,-14.39809 -14.2836,-14.39808 -13.2461,0 z"
         style="font-style:normal;font-weight:normal;font-size:40px;line-height:125%;font-family:sans-serif;letter-spacing:0px;word-spacing:0px;fill:#ffcf05;fill-opacity:1;stroke:#ffcf05;stroke-width:0.51421714px;stroke-linecap:butt;stroke-linejoin:miter;stroke-miterlimit:4;stroke-dasharray:none;stroke-opacity:1;fill-rule:evenodd"
         transform="matrix(1.8914983,0,0,1.8914983,2208.0585,-985.43228)" />
      <path
         style="font-style:normal;font-weight:normal;font-size:40px;line-height:125%;font-family:sans-serif;letter-spacing:0px;word-spacing:0px;fill:#ffcf05;fill-opacity:1;stroke:#ffcf05;stroke-width:0.51421714px;stroke-linecap:butt;stroke-linejoin:miter;stroke-miterlimit:4;stroke-dasharray:none;stroke-opacity:1;fill-rule:evenodd"
         d="m -1149.2295,665.37709 c 2.6485,2.87078 10.7656,12.14561 13.2461,14.39808 -2.4805,2.25248 -10.5976,11.5273 -13.2461,14.39809 l 13.2461,0 14.2836,-14.39809 -14.2836,-14.39808 -13.2461,0 z"
         id="path8987"
         inkscape:connector-curvature="0"
         transform="matrix(1.8914983,0,0,1.8914983,2208.0585,-985.43228)" />
      <g
         id="flowRoot8912"
         style="font-style:normal;font-weight:normal;font-size:40px;line-height:125%;font-family:sans-serif;letter-spacing:0px;word-spacing:0px;fill:#000000;fill-opacity:1;stroke:#000000;stroke-width:0.64628488;stroke-linecap:butt;stroke-linejoin:miter;stroke-miterlimit:4;stroke-dasharray:none;stroke-opacity:1"
         transform="matrix(1.8567664,0,0,1.8567664,2155.8837,-894.36847)">
        <path
           id="path8946"
           style="font-style:normal;font-variant:normal;font-weight:bold;font-stretch:normal;font-family:Helvetica;-inkscape-font-specification:'Helvetica Bold';letter-spacing:-0.23697111px;fill:#ffcf05;fill-opacity:1;stroke:#ffcf05;stroke-width:0.64628488;stroke-miterlimit:4;stroke-dasharray:none;stroke-opacity:1"
           d="m -1478.8926,664.93066 0,5.09766 -8.6133,0 0,23.69141 -6.0546,0 0,-23.69141 -8.6524,0 0,-5.09766 23.3203,0 z"
           inkscape:connector-curvature="0" />
        <path
           inkscape:connector-curvature="0"
           id="path8948"
           style="font-style:normal;font-variant:normal;font-weight:bold;font-stretch:normal;font-family:Helvetica;-inkscape-font-specification:'Helvetica Bold';letter-spacing:-0.23697111px;fill:#ffffff;fill-opacity:1;stroke:#ffffff;stroke-width:0.64628488;stroke-miterlimit:4;stroke-dasharray:none;stroke-opacity:1"
           d="m -1469.0405,669.93066 0,7.73438 6.8164,0 q 2.0313,0 3.0469,-0.46875 1.7969,-0.82031 1.7969,-3.24219 0,-2.61719 -1.7383,-3.51562 -0.9766,-0.50782 -2.9297,-0.50782 l -6.9922,0 z m 8.2422,-5 q 3.0274,0.0586 4.6485,0.74219 1.6406,0.6836 2.7734,2.01172 0.9375,1.09375 1.4844,2.42188 0.5468,1.32812 0.5468,3.02734 0,2.05078 -1.0351,4.04297 -1.0352,1.97265 -3.418,2.79297 1.9922,0.80078 2.8125,2.28515 0.8399,1.46485 0.8399,4.49219 l 0,1.93359 q 0,1.97266 0.1562,2.67579 0.2344,1.11328 1.0938,1.64062 l 0,0.72266 -6.6211,0 q -0.2735,-0.95703 -0.3907,-1.54297 -0.2343,-1.21094 -0.2539,-2.48047 l -0.039,-2.67578 q -0.039,-2.75391 -1.0156,-3.67188 -0.9571,-0.91797 -3.6133,-0.91797 l -6.211,0 0,11.28907 -5.8789,0 0,-28.78907 14.1211,0 z" />
        <path
           id="path8950"
           style="font-style:normal;font-variant:normal;font-weight:bold;font-stretch:normal;font-family:Helvetica;-inkscape-font-specification:'Helvetica Bold';letter-spacing:-0.23697111px;fill:#ffffff;fill-opacity:1;stroke:#ffffff;stroke-width:0.64628488;stroke-miterlimit:4;stroke-dasharray:none;stroke-opacity:1"
           d="m -1439.054,682.84082 7.3047,0 -3.5938,-11.32812 -3.7109,11.32812 z m 0.3711,-17.91016 6.7968,0 10.1954,28.78907 -6.5235,0 -1.8554,-5.91797 -10.6055,0 -1.9922,5.91797 -6.2891,0 10.2735,-28.78907 z m 3.3593,0 0,0 z"
           inkscape:connector-curvature="0" />
        <path
           inkscape:connector-curvature="0"
           id="path8952"
           style="font-style:normal;font-variant:normal;font-weight:bold;font-stretch:normal;font-family:Helvetica;-inkscape-font-specification:'Helvetica Bold';letter-spacing:-0.23697111px;fill:#ffffff;fill-opacity:1;stroke:#ffffff;stroke-width:0.64628488;stroke-miterlimit:4;stroke-dasharray:none;stroke-opacity:1"
           d="m -1417.6531,664.93066 6.3086,0 11.4648,20.09766 0,-20.09766 5.6055,0 0,28.78907 -6.0156,0 -11.7578,-20.44922 0,20.44922 -5.6055,0 0,-28.78907 z m 11.9141,-0.0586 0,0 z" />
        <path
           inkscape:connector-curvature="0"
           id="path8954"
           style="font-style:normal;font-variant:normal;font-weight:bold;font-stretch:normal;font-family:Helvetica;-inkscape-font-specification:'Helvetica Bold';letter-spacing:-0.23697111px;fill:#ffffff;fill-opacity:1;stroke:#ffffff;stroke-width:0.64628488;stroke-miterlimit:4;stroke-dasharray:none;stroke-opacity:1"
           d="m -1383.0769,684.83301 q 0.2735,1.97265 1.0742,2.94922 1.4649,1.77734 5.0196,1.77734 2.1289,0 3.457,-0.46875 2.5195,-0.89844 2.5195,-3.33984 0,-1.42578 -1.25,-2.20703 -1.25,-0.76172 -3.9258,-1.34766 l -3.0468,-0.68359 q -4.4922,-1.01563 -6.211,-2.20704 -2.9101,-1.99218 -2.9101,-6.23046 0,-3.86719 2.8125,-6.42579 2.8125,-2.55859 8.2617,-2.55859 4.5508,0 7.7539,2.42188 3.2227,2.40234 3.3789,6.99218 l -5.7812,0 q -0.1563,-2.59765 -2.2657,-3.6914 -1.4062,-0.72266 -3.4961,-0.72266 -2.3242,0 -3.7109,0.9375 -1.3867,0.9375 -1.3867,2.61719 0,1.54297 1.3672,2.30469 0.8789,0.50781 3.75,1.1914 l 4.9609,1.19141 q 3.2617,0.78125 4.9219,2.08984 2.5781,2.03125 2.5781,5.87891 0,3.94531 -3.0273,6.5625 -3.0078,2.59765 -8.5157,2.59765 -5.625,0 -8.8476,-2.55859 -3.2227,-2.57812 -3.2227,-7.07031 l 5.7422,0 z m 5.8399,-20.78125 0,0 z" />
        <path
           inkscape:connector-curvature="0"
           id="path8956"
           style="font-style:normal;font-variant:normal;font-weight:bold;font-stretch:normal;font-family:Helvetica;-inkscape-font-specification:'Helvetica Bold';letter-spacing:-0.23697111px;fill:#ffffff;fill-opacity:1;stroke:#ffffff;stroke-width:0.66257572;stroke-miterlimit:4;stroke-dasharray:none;stroke-opacity:1"
           d="m -1345.1336,674.09378 q 0,-2.24482 -1.2529,-3.20131 -1.2324,-0.95649 -3.4713,-0.95649 l -5.8949,0 0,8.47177 5.8949,0 q 2.2389,0 3.4713,-1.03457 1.2529,-1.03458 1.2529,-3.2794 z m 6.2648,-0.0391 q 0,5.09477 -2.7114,7.20296 -2.7112,2.10817 -7.7435,2.10817 l -6.429,0 0,10.34571 -6.2852,0 0,-28.77277 13.1866,0 q 4.5599,0 7.2711,2.22531 2.7114,2.2253 2.7114,6.89062 z" />
        <path
           inkscape:connector-curvature="0"
           id="path8958"
           style="font-style:normal;font-variant:normal;font-weight:bold;font-stretch:normal;font-family:Helvetica;-inkscape-font-specification:'Helvetica Bold';letter-spacing:-0.23697111px;fill:#ffffff;fill-opacity:1;stroke:#ffffff;stroke-width:0.64628488;stroke-miterlimit:4;stroke-dasharray:none;stroke-opacity:1"
           d="m -1322.8897,689.42285 q 3.5743,0 5.6641,-2.63672 2.1094,-2.63672 2.1094,-7.5 0,-4.84375 -2.1094,-7.48047 -2.0898,-2.65625 -5.6641,-2.65625 -3.5742,0 -5.7031,2.63672 -2.1289,2.63672 -2.1289,7.5 0,4.86328 2.1289,7.5 2.1289,2.63672 5.7031,2.63672 z m 13.7891,-10.13672 q 0,7.75391 -4.3555,11.875 -3.2617,3.35938 -9.4336,3.35938 -6.1718,0 -9.4335,-3.35938 -4.375,-4.12109 -4.375,-11.875 0,-7.91015 4.375,-11.875 3.2617,-3.35937 9.4335,-3.35937 6.1719,0 9.4336,3.35937 4.3555,3.96485 4.3555,11.875 z m -13.7891,-15.23437 0,0 z" />
        <path
           inkscape:connector-curvature="0"
           id="path8960"
           style="font-style:normal;font-variant:normal;font-weight:bold;font-stretch:normal;font-family:Helvetica;-inkscape-font-specification:'Helvetica Bold';letter-spacing:-0.23697111px;fill:#ffffff;fill-opacity:1;stroke:#ffffff;stroke-width:0.64628488;stroke-miterlimit:4;stroke-dasharray:none;stroke-opacity:1"
           d="m -1299.2308,669.93066 0,7.73438 6.8164,0 q 2.0312,0 3.0469,-0.46875 1.7968,-0.82031 1.7968,-3.24219 0,-2.61719 -1.7382,-3.51562 -0.9766,-0.50782 -2.9297,-0.50782 l -6.9922,0 z m 8.2422,-5 q 3.0273,0.0586 4.6484,0.74219 1.6406,0.6836 2.7734,2.01172 0.9375,1.09375 1.4844,2.42188 0.5469,1.32812 0.5469,3.02734 0,2.05078 -1.0352,4.04297 -1.0351,1.97265 -3.4179,2.79297 1.9922,0.80078 2.8125,2.28515 0.8398,1.46485 0.8398,4.49219 l 0,1.93359 q 0,1.97266 0.1563,2.67579 0.2343,1.11328 1.0937,1.64062 l 0,0.72266 -6.6211,0 q -0.2734,-0.95703 -0.3906,-1.54297 -0.2344,-1.21094 -0.2539,-2.48047 l -0.039,-2.67578 q -0.039,-2.75391 -1.0156,-3.67188 -0.957,-0.91797 -3.6133,-0.91797 l -6.2109,0 0,11.28907 -5.8789,0 0,-28.78907 14.1211,0 z" />
        <path
           inkscape:connector-curvature="0"
           id="path8962"
           style="font-style:normal;font-variant:normal;font-weight:bold;font-stretch:normal;font-family:Helvetica;-inkscape-font-specification:'Helvetica Bold';letter-spacing:-0.23697111px;fill:#ffffff;fill-opacity:1;stroke:#ffffff;stroke-width:0.64628488;stroke-miterlimit:4;stroke-dasharray:none;stroke-opacity:1"
           d="m -1254.1029,664.93066 0,5.09766 -8.6133,0 0,23.69141 -6.0547,0 0,-23.69141 -8.6523,0 0,-5.09766 23.3203,0 z" />
        <path
           inkscape:connector-curvature="0"
           id="path8964"
           style="font-style:normal;font-variant:normal;font-weight:bold;font-stretch:normal;font-family:Helvetica;-inkscape-font-specification:'Helvetica Bold';letter-spacing:-0.23697111px;fill:#ffffff;fill-opacity:1;stroke:#ffffff;stroke-width:0.64628488;stroke-miterlimit:4;stroke-dasharray:none;stroke-opacity:1"
           d="m -1246.1649,682.84082 7.3047,0 -3.5938,-11.32812 -3.7109,11.32812 z m 0.3711,-17.91016 6.7969,0 10.1953,28.78907 -6.5235,0 -1.8554,-5.91797 -10.6055,0 -1.9922,5.91797 -6.2891,0 10.2735,-28.78907 z m 3.3594,0 0,0 z" />
        <path
           inkscape:connector-curvature="0"
           id="path8966"
           style="font-style:normal;font-variant:normal;font-weight:bold;font-stretch:normal;font-family:Helvetica;-inkscape-font-specification:'Helvetica Bold';letter-spacing:-0.23697111px;fill:#ffffff;fill-opacity:1;stroke:#ffffff;stroke-width:0.64628488;stroke-miterlimit:4;stroke-dasharray:none;stroke-opacity:1"
           d="m -1207.6801,664.93066 0,5.09766 -8.6133,0 0,23.69141 -6.0546,0 0,-23.69141 -8.6524,0 0,-5.09766 23.3203,0 z" />
        <path
           inkscape:connector-curvature="0"
           id="path8968"
           style="font-style:normal;font-variant:normal;font-weight:bold;font-stretch:normal;font-family:Helvetica;-inkscape-font-specification:'Helvetica Bold';letter-spacing:-0.23697111px;fill:#ffffff;fill-opacity:1;stroke:#ffffff;stroke-width:0.64628488;stroke-miterlimit:4;stroke-dasharray:none;stroke-opacity:1"
           d="m -1197.797,693.71973 -5.9765,0 0,-28.78907 5.9765,0 0,28.78907 z m -2.9883,-29.35547 0,0 z" />
        <path
           inkscape:connector-curvature="0"
           id="path8970"
           style="font-style:normal;font-variant:normal;font-weight:bold;font-stretch:normal;font-family:Helvetica;-inkscape-font-specification:'Helvetica Bold';letter-spacing:-0.23697111px;fill:#ffffff;fill-opacity:1;stroke:#ffffff;stroke-width:0.64628488;stroke-miterlimit:4;stroke-dasharray:none;stroke-opacity:1"
           d="m -1179.6355,689.42285 q 3.5742,0 5.6641,-2.63672 2.1093,-2.63672 2.1093,-7.5 0,-4.84375 -2.1093,-7.48047 -2.0899,-2.65625 -5.6641,-2.65625 -3.5742,0 -5.7031,2.63672 -2.1289,2.63672 -2.1289,7.5 0,4.86328 2.1289,7.5 2.1289,2.63672 5.7031,2.63672 z m 13.7891,-10.13672 q 0,7.75391 -4.3555,11.875 -3.2617,3.35938 -9.4336,3.35938 -6.1719,0 -9.4336,-3.35938 -4.375,-4.12109 -4.375,-11.875 0,-7.91015 4.375,-11.875 3.2617,-3.35937 9.4336,-3.35937 6.1719,0 9.4336,3.35937 4.3555,3.96485 4.3555,11.875 z m -13.7891,-15.23437 0,0 z" />
        <path
           inkscape:connector-curvature="0"
           id="path8972"
           style="font-style:normal;font-variant:normal;font-weight:bold;font-stretch:normal;font-family:Helvetica;-inkscape-font-specification:'Helvetica Bold';letter-spacing:-0.23697111px;fill:#ffffff;fill-opacity:1;stroke:#ffffff;stroke-width:0.64628488;stroke-miterlimit:4;stroke-dasharray:none;stroke-opacity:1"
           d="m -1161.6108,664.93066 6.3086,0 11.4649,20.09766 0,-20.09766 5.6055,0 0,28.78907 -6.0157,0 -11.7578,-20.44922 0,20.44922 -5.6055,0 0,-28.78907 z m 11.9141,-0.0586 0,0 z" />
      </g>
    </g>
  </g>
</svg>
